<?xml version="1.0" encoding="UTF-8" standalone="no"?>
<!-- Created with Inkscape (http://www.inkscape.org/) -->

<svg
   xmlns:dc="http://purl.org/dc/elements/1.1/"
   xmlns:cc="http://creativecommons.org/ns#"
   xmlns:rdf="http://www.w3.org/1999/02/22-rdf-syntax-ns#"
   xmlns:svg="http://www.w3.org/2000/svg"
   xmlns="http://www.w3.org/2000/svg"
   xmlns:sodipodi="http://sodipodi.sourceforge.net/DTD/sodipodi-0.dtd"
   xmlns:inkscape="http://www.inkscape.org/namespaces/inkscape"
   width="200mm"
   height="200mm"
   viewBox="0 0 200 200"
   version="1.1"
   id="svg8"
   inkscape:version="0.92.1 r15371"
   sodipodi:docname="BlackRookSoftware - ArcheText.svg">
  <defs
     id="defs2" />
  <sodipodi:namedview
     id="base"
     pagecolor="#ffffff"
     bordercolor="#666666"
     borderopacity="1.0"
     inkscape:pageopacity="0.0"
     inkscape:pageshadow="2"
     inkscape:zoom="0.49497475"
     inkscape:cx="369.3285"
     inkscape:cy="378.184"
     inkscape:document-units="mm"
     inkscape:current-layer="layer1"
     showgrid="true"
     showguides="false"
     units="mm"
     fit-margin-top="0"
     fit-margin-left="0"
     fit-margin-right="0"
     fit-margin-bottom="0"
     inkscape:window-width="1314"
     inkscape:window-height="804"
     inkscape:window-x="269"
     inkscape:window-y="81"
     inkscape:window-maximized="0"
     inkscape:snap-bbox="true">
    <inkscape:grid
       type="xygrid"
       id="grid4485"
       units="mm"
       spacingx="1.25"
       spacingy="1.25"
       originx="-2.3499721e-016"
       originy="6.0159285e-014" />
  </sodipodi:namedview>
  <metadata
     id="metadata5">
    <rdf:RDF>
      <cc:Work
         rdf:about="">
        <dc:format>image/svg+xml</dc:format>
        <dc:type
           rdf:resource="http://purl.org/dc/dcmitype/StillImage" />
        <dc:title></dc:title>
      </cc:Work>
    </rdf:RDF>
  </metadata>
  <g
     inkscape:label="Layer 1"
     inkscape:groupmode="layer"
     id="layer1"
     transform="translate(1.0833282,-97)">
    <path
       style="opacity:1;fill:#000000;fill-opacity:0.50196078;fill-rule:nonzero;stroke:none;stroke-width:10;stroke-linecap:round;stroke-linejoin:round;stroke-miterlimit:4;stroke-dasharray:none;stroke-dashoffset:0;stroke-opacity:0.50196078"
       id="path4493-0"
       sodipodi:type="arc"
       sodipodi:cx="98.916679"
       sodipodi:cy="201.5"
       sodipodi:rx="95.000008"
       sodipodi:ry="95.000008"
       sodipodi:start="4.7079733"
       sodipodi:end="4.7065247"
       sodipodi:open="true"
       d="M 98.497191,106.50092 A 95.000008,95.000008 0 0 1 193.9156,201.04611 95.000008,95.000008 0 0 1 99.404975,296.49875 95.000008,95.000008 0 0 1 3.9181097,202.0227 95.000008,95.000008 0 0 1 98.359576,106.50163" />
    <path
       style="opacity:1;fill:#ffffff;fill-opacity:1;fill-rule:nonzero;stroke:#000000;stroke-width:10;stroke-linecap:round;stroke-linejoin:round;stroke-miterlimit:4;stroke-dasharray:none;stroke-dashoffset:0;stroke-opacity:1"
       id="path4493"
       sodipodi:type="arc"
       sodipodi:cx="98.916672"
       sodipodi:cy="197"
       sodipodi:rx="90"
       sodipodi:ry="90"
       sodipodi:start="4.7079733"
       sodipodi:end="4.7065247"
       sodipodi:open="true"
       d="M 98.519262,107.00088 A 90,90 0 0 1 188.91564,196.57 90,90 0 0 1 99.379268,286.99881 90,90 0 0 1 8.9180341,197.49519 90,90 0 0 1 98.38889,107.00155" />
    <g
       id="g5777"
       transform="translate(-1.0833287)">
      <path
         sodipodi:nodetypes="ccccccccccccc"
         inkscape:connector-curvature="0"
         id="path4512"
         d="M 40.000001,257 C 40.000001,247 50,247 50,247 c 10e-7,-10 10,-10 10,-10 10,0 10,-40 10,-40 0,-30 -10,-40 -10,-40 v -20 h 10 v 10 H 85.000001 V 137 H 100 V 287 C 50,287 40.000001,257 40.000001,257 Z"
         style="fill:#000000;fill-opacity:1;fill-rule:evenodd;stroke:#000000;stroke-width:5;stroke-linecap:round;stroke-linejoin:miter;stroke-miterlimit:4;stroke-dasharray:none;stroke-opacity:1" />
      <path
         sodipodi:nodetypes="ccccccccccccc"
         inkscape:connector-curvature="0"
         id="path4512-2"
         d="m 160,257 c 0,-10 -10,-10 -10,-10 0,-10 -10,-10 -10,-10 -10,0 -10,-40 -10,-40 0,-30 10,-40 10,-40 v -20 h -10 v 10 h -15 v -10 h -15 v 150 c 50,0 60,-30 60,-30 z"
         style="fill:#000000;fill-opacity:1;fill-rule:evenodd;stroke:#000000;stroke-width:5;stroke-linecap:round;stroke-linejoin:miter;stroke-miterlimit:4;stroke-dasharray:none;stroke-opacity:1" />
    </g>
    <g
       id="g10784"
       transform="translate(-2.6601179e-7,1.7865386e-4)">
      <g
         transform="translate(0.27500269,-11.900923)"
         id="text10728"
         style="font-style:normal;font-variant:normal;font-weight:normal;font-stretch:normal;font-size:50.79999924px;line-height:6.61458302px;font-family:'Times New Roman';-inkscape-font-specification:'Times New Roman, ';text-align:start;letter-spacing:0px;word-spacing:0px;text-anchor:start;fill:#000000;fill-opacity:1;stroke:none;stroke-width:0.26458332px;stroke-linecap:butt;stroke-linejoin:miter;stroke-opacity:1"
         aria-label="A">
        <path
           id="path10737"
           style="font-size:50.79999924px;fill:#ffffff;fill-opacity:1;stroke-width:0.26458332px"
           d="M 103.63783,194.20295 H 90.615367 l -2.282031,5.3082 q -0.84336,1.95957 -0.84336,2.92696 0,0.76894 0.719336,1.36426 0.744141,0.5705 3.175,0.74414 v 0.91777 H 80.792711 v -0.91777 q 2.108398,-0.37207 2.728515,-0.96739 1.265039,-1.19062 2.80293,-4.83691 l 11.831836,-27.68203 h 0.868164 l 11.707814,27.97969 q 1.41387,3.37343 2.55488,4.39042 1.16582,0.99219 3.22461,1.11622 v 0.91777 h -13.27051 v -0.91777 q 2.00918,-0.0992 2.70371,-0.66973 0.71934,-0.57051 0.71934,-1.38906 0,-1.09141 -0.99219,-3.44785 z m -0.69453,-1.83555 -5.705082,-13.59296 -5.853906,13.59296 z"
           inkscape:connector-curvature="0" />
      </g>
      <g
         transform="matrix(1.1685316,0,0,1.1375933,-15.35016,-41.614758)"
         id="text10732"
         style="font-style:normal;font-variant:normal;font-weight:normal;font-stretch:normal;font-size:50.79999924px;line-height:6.61458302px;font-family:'Times New Roman';-inkscape-font-specification:'Times New Roman, ';text-align:start;letter-spacing:0px;word-spacing:0px;text-anchor:start;fill:#000000;fill-opacity:1;stroke:none;stroke-width:0.22948204px;stroke-linecap:butt;stroke-linejoin:miter;stroke-opacity:1"
         aria-label="T">
        <path
           inkscape:connector-curvature="0"
           id="path10734"
           style="font-size:56.44444275px;fill:#ffffff;fill-opacity:1;stroke-width:0.22948204px"
           d="m 113.05535,205.64547 0.41341,8.76433 h -1.04731 q -0.30317,-2.31511 -0.82682,-3.3073 -0.85439,-1.59852 -2.28755,-2.34266 -1.40559,-0.7717 -3.7207,-0.7717 h -5.2641 v 28.55295 q 0,3.44509 0.74414,4.29948 1.0473,1.15755 3.22461,1.15755 h 1.29535 v 1.01975 H 89.738942 v -1.01975 h 1.322917 q 2.370225,0 3.362413,-1.43316 0.606337,-0.88194 0.606337,-4.02387 v -28.55295 h -4.492405 q -2.618272,0 -3.720703,0.38585 -1.433159,0.52365 -2.452908,2.01193 -1.019748,1.48829 -1.212673,4.02388 h -1.047309 l 0.440972,-8.76433 z" />
      </g>
      <g
         transform="matrix(-1,0,0,1,197.57913,-11.90128)"
         id="text10728-2"
         style="font-style:normal;font-variant:normal;font-weight:normal;font-stretch:normal;font-size:50.79999924px;line-height:6.61458302px;font-family:'Times New Roman';-inkscape-font-specification:'Times New Roman, ';text-align:start;letter-spacing:0px;word-spacing:0px;text-anchor:start;fill:#000000;fill-opacity:1;stroke:none;stroke-width:0.26458332px;stroke-linecap:butt;stroke-linejoin:miter;stroke-opacity:1"
         aria-label="A">
        <path
           id="path10737-2"
           style="font-size:50.79999924px;fill:#ffffff;fill-opacity:1;stroke-width:0.26458332px"
           d="M 103.63783,194.20295 H 90.615367 l -2.282031,5.3082 q -0.84336,1.95957 -0.84336,2.92696 0,0.76894 0.719336,1.36426 0.744141,0.5705 3.175,0.74414 v 0.91777 H 80.792711 v -0.91777 q 2.108398,-0.37207 2.728515,-0.96739 1.265039,-1.19062 2.80293,-4.83691 l 11.831836,-27.68203 h 0.868164 l 11.707814,27.97969 q 1.41387,3.37343 2.55488,4.39042 1.16582,0.99219 3.22461,1.11622 v 0.91777 h -13.27051 v -0.91777 q 2.00918,-0.0992 2.70371,-0.66973 0.71934,-0.57051 0.71934,-1.38906 0,-1.09141 -0.99219,-3.44785 z m -0.69453,-1.83555 -5.705082,-13.59296 -5.853906,13.59296 z"
           inkscape:connector-curvature="0" />
      </g>
    </g>
    <g
       transform="translate(8.0324212e-7,-2.5034649e-4)"
       id="g9121"
       style="stroke:#c0c0c0;stroke-opacity:1">
      <path
         inkscape:connector-curvature="0"
         id="path9102"
         d="m 48.916672,165.75 c -6.167798,0.12346 -6.250001,18.75 -6.250001,18.75 0.0822,12.91127 -12.499999,12.5 -12.499999,12.5 12.5,0 12.5,18.75 12.5,18.75 0,12.5 6.25,12.5 6.25,12.5"
         style="fill:none;fill-rule:evenodd;stroke:#c0c0c0;stroke-width:5;stroke-linecap:butt;stroke-linejoin:miter;stroke-miterlimit:4;stroke-dasharray:none;stroke-opacity:1" />
      <path
         inkscape:connector-curvature="0"
         id="path9102-1"
         d="m 148.91667,165.75 c 6.1678,0.12346 6.25,18.75 6.25,18.75 -0.0822,12.91127 12.5,12.5 12.5,12.5 -12.5,0 -12.5,18.75 -12.5,18.75 0,12.5 -6.25,12.5 -6.25,12.5"
         style="fill:none;fill-rule:evenodd;stroke:#c0c0c0;stroke-width:5;stroke-linecap:butt;stroke-linejoin:miter;stroke-miterlimit:4;stroke-dasharray:none;stroke-opacity:1" />
    </g>
  </g>
</svg>
